<svg width="26" height="22" viewBox="0 0 26 22" fill="none" xmlns="http://www.w3.org/2000/svg">
<g clip-path="url(#clip0_403_12)">
<path d="M25.9987 2.5845C25.0252 3.01577 23.9926 3.29886 22.9353 3.42434C24.0366 2.76425 24.8823 1.71897 25.2804 0.473529C24.2335 1.09481 23.088 1.53255 21.8936 1.76782C20.9206 0.73127 19.5345 0.0834656 18.0003 0.0834656C15.0547 0.0834656 12.6665 2.47158 12.6665 5.41701C12.6665 5.8351 12.7137 6.24212 12.8046 6.63259C8.37184 6.41009 4.44176 4.28673 1.81104 1.05979C1.35202 1.84754 1.089 2.76384 1.089 3.74119C1.089 5.59168 2.0307 7.22414 3.46178 8.18066C2.61478 8.15413 1.78641 7.92537 1.04584 7.51346C1.04554 7.5358 1.04554 7.55814 1.04554 7.58059C1.04554 10.1648 2.88404 12.3206 5.32395 12.8105C4.53852 13.0241 3.71467 13.0554 2.91532 12.9019C3.594 15.0209 5.56381 16.5629 7.89769 16.6061C6.07229 18.0365 3.77242 18.8893 1.27362 18.8893C0.84304 18.8893 0.41855 18.864 0.00127029 18.8147C2.36166 20.3281 5.16522 21.2111 8.17727 21.2111C17.988 21.2111 23.3527 13.0837 23.3527 6.03556C23.3527 5.80423 23.3476 5.57421 23.3372 5.34551C24.3814 4.59066 25.2827 3.65569 25.9987 2.5845Z" fill="#DBEEFC"/>
</g>
<defs>
<clipPath id="clip0_403_12">
<rect width="26" height="21.2245" fill="white"/>
</clipPath>
</defs>
</svg>
