<svg width="26" height="26" viewBox="0 0 26 26" fill="none" xmlns="http://www.w3.org/2000/svg">
<path d="M26 13C26 16.4478 24.6304 19.7544 22.1924 22.1924C19.7544 24.6304 16.4478 26 13 26C9.55219 26 6.24558 24.6304 3.80761 22.1924C1.36964 19.7544 0 16.4478 0 13C0 9.55219 1.36964 6.24558 3.80761 3.80761C6.24558 1.36964 9.55219 0 13 0C16.4478 0 19.7544 1.36964 22.1924 3.80761C24.6304 6.24558 26 9.55219 26 13ZM16.25 13C16.25 12.138 15.9076 11.3114 15.2981 10.7019C14.6886 10.0924 13.862 9.75 13 9.75C12.138 9.75 11.3114 10.0924 10.7019 10.7019C10.0924 11.3114 9.75 12.138 9.75 13C9.75 13.862 10.0924 14.6886 10.7019 15.2981C11.3114 15.9076 12.138 16.25 13 16.25C13.862 16.25 14.6886 15.9076 15.2981 15.2981C15.9076 14.6886 16.25 13.862 16.25 13ZM6.5 13C6.5 11.2761 7.18482 9.62279 8.40381 8.40381C9.62279 7.18482 11.2761 6.5 13 6.5C13.2155 6.5 13.4222 6.4144 13.5745 6.26202C13.7269 6.10965 13.8125 5.90299 13.8125 5.6875C13.8125 5.47201 13.7269 5.26535 13.5745 5.11298C13.4222 4.9606 13.2155 4.875 13 4.875C10.8451 4.875 8.77849 5.73102 7.25476 7.25476C5.73102 8.77849 4.875 10.8451 4.875 13C4.875 13.2155 4.9606 13.4222 5.11298 13.5745C5.26535 13.7269 5.47201 13.8125 5.6875 13.8125C5.90299 13.8125 6.10965 13.7269 6.26202 13.5745C6.4144 13.4222 6.5 13.2155 6.5 13ZM21.125 13C21.125 12.7845 21.0394 12.5778 20.887 12.4255C20.7347 12.2731 20.528 12.1875 20.3125 12.1875C20.097 12.1875 19.8903 12.2731 19.738 12.4255C19.5856 12.5778 19.5 12.7845 19.5 13C19.5 14.7239 18.8152 16.3772 17.5962 17.5962C16.3772 18.8152 14.7239 19.5 13 19.5C12.7845 19.5 12.5778 19.5856 12.4255 19.738C12.2731 19.8903 12.1875 20.097 12.1875 20.3125C12.1875 20.528 12.2731 20.7347 12.4255 20.887C12.5778 21.0394 12.7845 21.125 13 21.125C15.1549 21.125 17.2215 20.269 18.7452 18.7452C20.269 17.2215 21.125 15.1549 21.125 13Z" fill="#C7C7C7"/>
</svg>
