<svg width="5" height="22" viewBox="0 0 5 22" fill="none" xmlns="http://www.w3.org/2000/svg">
<path d="M5 19.1667C5 19.8297 4.73661 20.4656 4.26777 20.9344C3.79893 21.4033 3.16304 21.6667 2.5 21.6667C1.83696 21.6667 1.20107 21.4033 0.732233 20.9344C0.263392 20.4656 0 19.8297 0 19.1667C0 18.5036 0.263392 17.8677 0.732233 17.3989C1.20107 16.9301 1.83696 16.6667 2.5 16.6667C3.16304 16.6667 3.79893 16.9301 4.26777 17.3989C4.73661 17.8677 5 18.5036 5 19.1667ZM5 10.8333C5 11.4964 4.73661 12.1323 4.26777 12.6011C3.79893 13.0699 3.16304 13.3333 2.5 13.3333C1.83696 13.3333 1.20107 13.0699 0.732233 12.6011C0.263392 12.1323 0 11.4964 0 10.8333C0 10.1703 0.263392 9.53441 0.732233 9.06557C1.20107 8.59673 1.83696 8.33333 2.5 8.33333C3.16304 8.33333 3.79893 8.59673 4.26777 9.06557C4.73661 9.53441 5 10.1703 5 10.8333ZM5 2.5C5 3.16304 4.73661 3.79893 4.26777 4.26777C3.79893 4.73661 3.16304 5 2.5 5C1.83696 5 1.20107 4.73661 0.732233 4.26777C0.263392 3.79893 0 3.16304 0 2.5C0 1.83696 0.263392 1.20107 0.732233 0.732233C1.20107 0.263392 1.83696 0 2.5 0C3.16304 0 3.79893 0.263392 4.26777 0.732233C4.73661 1.20107 5 1.83696 5 2.5Z" fill="white"/>
</svg>
