<svg width="197" height="189" viewBox="0 0 197 189" fill="none" xmlns="http://www.w3.org/2000/svg">
<g filter="url(#filter0_d_403_20)">
<path d="M98.25 0C152.474 0 196.5 42.3455 196.5 94.5C196.5 146.655 152.474 189 98.25 189C44.0258 189 0 146.655 0 94.5C0 42.3455 44.0258 0 98.25 0Z" fill="#FFD426"/>
<path d="M98.25 0C152.474 0 196.5 42.3454 196.5 94.5C196.5 146.655 152.474 189 98.25 189C44.0258 189 0 146.655 0 94.5C0 42.3454 44.0258 0 98.25 0Z" stroke="white" stroke-width="6"/>
<path d="M156.867 59.7695C169.165 57.198 181.321 64.7142 183.994 76.5431C186.668 88.372 178.854 100.064 166.555 102.636C154.257 105.207 142.101 97.6909 139.427 85.862C136.754 74.0331 144.568 62.341 156.867 59.7695Z" fill="#984DFF"/>
<path d="M85.3913 31.5954C125.322 23.246 164.139 43.4383 172.474 77.2794L172.728 78.3033L160.989 80.7579C154.694 52.908 122.135 35.737 87.9433 42.8864C54.1225 49.9582 32.0104 78.0992 37.6742 105.685L37.8592 106.504L26.1201 108.958C18.336 74.5187 45.0899 40.0222 85.3913 31.5954Z" fill="#B06BFF"/>
<path d="M115.048 74.7984C118.606 90.5387 134.756 100.525 151.121 97.103C167.486 93.6812 177.868 78.1471 174.311 62.4068C170.753 46.6665 154.603 36.6803 138.238 40.1021C121.873 43.524 111.49 59.0581 115.048 74.7984Z" fill="#303135"/>
<path d="M32.3713 124.646C24.6773 90.6045 61.2085 57.2067 91.6301 49.351L94.4013 48.7716C124.629 43.9016 161.178 50.4139 174.422 87.2726C175.167 89.3586 176.105 91.3824 177.207 93.3279C196.51 127.777 156.046 148.018 118.726 156.393L118.731 156.414C118.273 156.51 117.814 156.606 117.351 156.681C116.876 156.802 116.418 156.898 115.96 156.994L115.955 156.973C77.3583 164.45 40.1174 158.917 32.3713 124.646Z" fill="white"/>
<path d="M122.466 94.67C126.11 93.9081 128.374 94.9292 128.825 96.9229C129.275 98.9167 127.152 101.251 124.097 101.89C121.043 102.528 118.082 101.257 117.631 99.2635C117.18 97.2697 118.8 95.4365 122.466 94.67Z" fill="#303135"/>
<path d="M162.172 126.739C172.078 124.667 179.774 111.607 175.942 94.6493C171.876 76.6633 156.009 63.7828 144.609 66.6279C131.723 69.8718 131.052 87.0238 133.733 97.8704C138.102 115.485 149.101 129.471 162.172 126.739Z" fill="#303135"/>
<path d="M138.538 95.8193C140.393 104.025 146.898 109.654 153.073 108.363C159.27 107.067 162.758 99.3487 160.904 91.1428C159.044 82.9158 152.539 77.2868 146.342 78.5825C140.167 79.8737 136.679 87.5924 138.538 95.8193Z" fill="white"/>
<path d="M148.311 83.8677C151.885 83.0985 154.406 85.2529 156.074 88.9922C156.879 90.7359 157.451 92.6604 158.008 95.2254L158.318 96.699C158.375 96.9509 158.41 97.2073 158.472 97.4801C158.741 98.8744 157.771 100.242 156.321 100.501C154.85 100.765 153.433 99.8526 153.158 98.4373L152.889 97.043L152.609 95.8048L152.331 94.6761C151.96 93.2371 151.581 92.0636 151.121 91.0389C150.346 89.3326 149.809 88.8736 149.503 88.9375C148.718 89.1017 148.332 90.1273 148.498 92.3784L148.587 93.1732C148.605 93.4552 148.649 93.7535 148.694 94.0519L148.873 95.0474L149.135 96.5092L149.627 98.8899C149.897 100.284 148.926 101.652 147.477 101.911C146.005 102.175 144.583 101.241 144.314 99.8471L143.628 96.408L143.541 95.9207C142.338 89.1829 143.128 84.9956 148.311 83.8677Z" fill="#303135"/>
<path d="M109.535 103.994C113.114 122.257 106.12 140.446 87.6163 144.315C73.5861 147.248 56.6472 139.032 52.7148 121.633C48.5358 103.144 62.4663 83.5927 78.8483 80.6508C97.4094 77.3412 107.329 92.7183 109.535 103.994Z" fill="#303135"/>
<path d="M99.9794 104.908C101.886 113.345 96.6467 121.606 88.2679 123.358C79.9108 125.105 71.5785 119.682 69.6716 111.246C67.7599 102.788 72.9995 94.5271 81.3566 92.7797C89.7354 91.0277 98.0678 96.4505 99.9794 104.908Z" fill="white"/>
<path d="M82.3114 97.6615C88.605 96.3895 91.9501 99.8661 94.0136 106.468L94.2422 107.277L94.5496 108.334L95.2772 111.149C95.6671 112.672 94.7223 114.254 93.1171 114.634C91.5166 115.034 89.8934 114.121 89.4769 112.581L88.6136 109.267L88.4305 108.558C87.1412 104.168 85.8956 102.802 83.539 103.295C82.3342 103.525 81.8314 104.334 81.7394 106.353C81.6834 107.925 81.9244 109.699 82.487 112.087L82.8171 113.447C82.8693 113.677 82.948 113.925 83.005 114.177C83.4214 115.716 82.45 117.282 80.8714 117.678C79.2709 118.078 77.643 117.144 77.2265 115.605L77.0244 114.812L76.6487 113.352C75.9818 110.502 75.6678 108.304 75.7702 106.128C75.9438 101.74 78.03 98.5348 82.3114 97.6615Z" fill="#303135"/>
<path d="M71.7857 46.2281C69.802 46.0663 67.982 45.4907 66.3748 44.5761L70.0457 37.9373C70.7505 38.3468 71.5689 38.6072 72.4372 38.6707C75.6563 38.9379 78.5236 36.467 78.816 33.2078C79.0802 29.9349 76.6811 27.0552 73.4407 26.7948C70.5675 26.5762 67.9843 28.5045 67.2557 31.2464L60.0236 29.3583C61.6667 23.1145 67.541 18.7164 74.0922 19.2374C81.4412 19.8219 86.9079 26.3641 86.2638 33.806C85.6198 41.248 79.1347 46.8125 71.7857 46.2281Z" fill="#FF5A2E"/>
<path d="M68.7351 19.8527C70.6011 19.2603 72.5222 19.1027 74.3927 19.3457L73.692 26.8282C72.8591 26.7308 72.0116 26.7963 71.2058 27.0521C68.11 28.035 66.4828 31.3787 67.5466 34.4787C68.6175 37.5992 71.9945 39.3542 75.0903 38.3713C77.8257 37.5029 79.4228 34.7567 78.9724 31.9369L86.3968 30.9594C87.1244 35.4779 85.5221 39.922 82.3145 42.8402L85.8119 49.1121L85.4446 50.5291L84.0009 51.8379L81.9522 51.9048L80.1693 51.1704L77.1087 45.6917L77.0875 45.6984C70.2182 47.6079 62.8229 43.6682 60.4432 36.734C58.0145 29.6569 61.7165 22.081 68.7351 19.8527Z" fill="#FF5A2E"/>
<path d="M73.301 56.6694C73.4708 57.1174 95.9984 48.9123 95.7707 48.4105C94.9102 46.5244 89.3186 46.3528 83.1199 48.5501C76.9041 50.7729 72.5278 54.7651 73.301 56.6694Z" fill="#303135"/>
<path d="M115.047 118.278C116.298 120.164 121.329 120.528 126.969 119.348C132.589 118.173 136.814 115.664 136.381 113.748C135.947 111.825 132.346 111.282 125.663 112.68C117.34 114.42 113.893 116.525 115.047 118.278Z" fill="#303135"/>
<path d="M124.054 117.298C128.396 116.39 132.261 116.23 134.014 116.784C132.405 117.756 130.109 118.642 127.459 119.247L126.97 119.35L126.523 119.443C122.638 120.205 119.097 120.221 116.929 119.506C118.706 118.689 121.223 117.89 124.054 117.298Z" fill="#FF4433"/>
<path d="M16.4806 96.0944C13.5614 81.0558 23.461 66.2161 38.8924 62.5059C46.5863 60.6553 54.4377 61.8269 60.8594 65.1657C60.8859 65.1821 60.9077 65.1776 60.9343 65.194C63.1571 67.8502 65.4605 70.8632 54.7774 90.5263C42.4615 113.278 34.2601 116.422 31.3742 116.19C24.4041 112.043 18.0896 104.528 16.4806 96.0944Z" fill="#303135"/>
<path d="M51.1711 47.1115C53.7601 45.1196 57.5292 45.5183 59.6002 48.0085C61.6712 50.4986 61.2566 54.1239 58.6677 56.1159C41.7772 69.1425 33.739 88.2745 37.8611 106.512C38.5631 109.618 36.4969 112.71 33.2676 113.385C30.0164 114.065 26.824 112.073 26.122 108.967C20.9848 86.2379 30.853 62.767 51.1711 47.1115Z" fill="#B06BFF"/>
<path d="M30.5582 93.2695C43.5038 90.5626 56.2996 98.4745 59.1139 110.926C61.9282 123.377 53.7024 135.685 40.7568 138.392C27.8112 141.099 15.0154 133.187 12.2011 120.735C9.38684 108.284 17.6127 95.9764 30.5582 93.2695Z" fill="#984DFF"/>
<path d="M24.3893 104.01C30.2148 102.792 36.3157 107.869 38.0042 115.34C39.6928 122.811 36.3339 129.865 30.5084 131.084C24.6829 132.302 18.5821 127.225 16.8935 119.754C15.2049 112.283 18.5638 105.228 24.3893 104.01Z" fill="#D98CFF"/>
<path d="M119.143 33.184C118.788 32.3893 119.498 31.5348 120.382 31.6915L124.998 32.5091C125.369 32.5747 125.681 32.8136 125.829 33.147L126.649 34.9846C127.004 35.7793 126.293 36.6338 125.409 36.477L122.626 35.9837L125.957 43.4514C125.969 43.4762 125.98 43.5021 125.991 43.5279L126.13 43.8395L126.105 43.8507C126.486 45.1984 125.846 46.8889 124.406 48.0168C122.613 49.4212 120.259 49.4224 119.148 48.0213C118.037 46.6202 118.589 44.3467 120.382 42.9424C121.204 42.2979 122.144 41.9493 123.029 41.8949L119.143 33.184Z" fill="#FF9D33"/>
<path d="M161.519 16.3136C161.866 14.7332 163.905 14.1628 165.08 15.3165L171.214 21.3385C171.706 21.8222 171.915 22.509 171.769 23.1718L170.966 26.8245C170.619 28.4049 168.58 28.9753 167.405 27.8216L163.708 24.1904L160.445 39.0362C160.435 39.0864 160.423 39.1372 160.411 39.188L160.275 39.8077L160.225 39.7989C159.3 42.2507 156.434 44.1702 152.973 44.4024C148.666 44.6923 145.07 42.2597 144.94 38.9716C144.81 35.6835 148.195 32.7833 152.502 32.4934C154.478 32.3601 156.303 32.7998 157.714 33.6313L161.519 16.3136Z" fill="#FF9D33"/>
</g>
<defs>
<filter id="filter0_d_403_20" x="-21" y="-13" width="242.5" height="235" filterUnits="userSpaceOnUse" color-interpolation-filters="sRGB">
<feFlood flood-opacity="0" result="BackgroundImageFix"/>
<feColorMatrix in="SourceAlpha" type="matrix" values="0 0 0 0 0 0 0 0 0 0 0 0 0 0 0 0 0 0 127 0" result="hardAlpha"/>
<feOffset dx="2" dy="10"/>
<feGaussianBlur stdDeviation="10"/>
<feComposite in2="hardAlpha" operator="out"/>
<feColorMatrix type="matrix" values="0 0 0 0 0 0 0 0 0 0 0 0 0 0 0 0 0 0 0.15 0"/>
<feBlend mode="normal" in2="BackgroundImageFix" result="effect1_dropShadow_403_20"/>
<feBlend mode="normal" in="SourceGraphic" in2="effect1_dropShadow_403_20" result="shape"/>
</filter>
</defs>
</svg>
