<svg width="26" height="26" viewBox="0 0 26 26" fill="none" xmlns="http://www.w3.org/2000/svg">
<path d="M18.785 5.91499C18.5279 5.91499 18.2765 5.99123 18.0628 6.13408C17.849 6.27693 17.6824 6.47996 17.584 6.7175C17.4856 6.95505 17.4598 7.21643 17.51 7.46861C17.5601 7.72078 17.684 7.95242 17.8658 8.13423C18.0476 8.31604 18.2792 8.43985 18.5314 8.49001C18.7836 8.54017 19.045 8.51443 19.2825 8.41603C19.52 8.31764 19.7231 8.15102 19.8659 7.93723C20.0088 7.72345 20.085 7.47211 20.085 7.21499C20.085 6.87021 19.948 6.53955 19.7042 6.29575C19.4604 6.05195 19.1298 5.91499 18.785 5.91499ZM23.7683 8.53666C23.7473 7.63781 23.5789 6.74851 23.27 5.90416C22.9945 5.18172 22.5658 4.52754 22.0133 3.98666C21.4769 3.43137 20.8212 3.00535 20.0958 2.74082C19.2537 2.4225 18.3634 2.2503 17.4633 2.23166C16.315 2.16666 15.9467 2.16666 13 2.16666C10.0533 2.16666 9.68501 2.16666 8.53667 2.23166C7.63659 2.2503 6.74629 2.4225 5.90417 2.74082C5.18015 3.00803 4.52502 3.43368 3.98667 3.98666C3.43138 4.5231 3.00536 5.1788 2.74084 5.90416C2.42251 6.74628 2.25032 7.63657 2.23167 8.53666C2.16667 9.68499 2.16667 10.0533 2.16667 13C2.16667 15.9467 2.16667 16.315 2.23167 17.4633C2.25032 18.3634 2.42251 19.2537 2.74084 20.0958C3.00536 20.8212 3.43138 21.4769 3.98667 22.0133C4.52502 22.5663 5.18015 22.992 5.90417 23.2592C6.74629 23.5775 7.63659 23.7497 8.53667 23.7683C9.68501 23.8333 10.0533 23.8333 13 23.8333C15.9467 23.8333 16.315 23.8333 17.4633 23.7683C18.3634 23.7497 19.2537 23.5775 20.0958 23.2592C20.8212 22.9946 21.4769 22.5686 22.0133 22.0133C22.5683 21.4745 22.9974 20.8197 23.27 20.0958C23.5789 19.2515 23.7473 18.3622 23.7683 17.4633C23.7683 16.315 23.8333 15.9467 23.8333 13C23.8333 10.0533 23.8333 9.68499 23.7683 8.53666ZM21.8183 17.3333C21.8105 18.021 21.6859 18.7023 21.45 19.3483C21.277 19.8198 20.9992 20.2458 20.6375 20.5942C20.2861 20.9522 19.861 21.2295 19.3917 21.4067C18.7457 21.6426 18.0643 21.7671 17.3767 21.775C16.2933 21.8292 15.8925 21.84 13.0433 21.84C10.1942 21.84 9.79334 21.84 8.71001 21.775C7.99597 21.7884 7.28498 21.6784 6.60834 21.45C6.1596 21.2637 5.75397 20.9872 5.41667 20.6375C5.0571 20.2895 4.78275 19.8631 4.61501 19.3917C4.35052 18.7364 4.20382 18.0396 4.18167 17.3333C4.18167 16.25 4.11667 15.8492 4.11667 13C4.11667 10.1508 4.11667 9.74999 4.18167 8.66666C4.18653 7.96363 4.31487 7.26693 4.56084 6.60832C4.75156 6.15106 5.04429 5.74345 5.41667 5.41666C5.7458 5.04417 6.15257 4.74834 6.60834 4.54999C7.26869 4.3117 7.96467 4.18716 8.66667 4.18166C9.75001 4.18166 10.1508 4.11666 13 4.11666C15.8492 4.11666 16.25 4.11666 17.3333 4.18166C18.021 4.18954 18.7024 4.31409 19.3483 4.54999C19.8406 4.7327 20.2825 5.02974 20.6375 5.41666C20.9925 5.74943 21.2699 6.15628 21.45 6.60832C21.6908 7.268 21.8154 7.96442 21.8183 8.66666C21.8725 9.74999 21.8833 10.1508 21.8833 13C21.8833 15.8492 21.8725 16.25 21.8183 17.3333ZM13 7.44249C11.9013 7.44463 10.8279 7.77239 9.91538 8.38436C9.00288 8.99633 8.29225 9.86504 7.87328 10.8807C7.4543 11.8964 7.34579 13.0135 7.56145 14.0908C7.77711 15.1682 8.30726 16.1574 9.08492 16.9336C9.86258 17.7097 10.8528 18.2379 11.9306 18.4515C13.0084 18.665 14.1252 18.5544 15.1401 18.1334C16.155 17.7125 17.0223 17.0001 17.6325 16.0864C18.2427 15.1728 18.5683 14.0987 18.5683 13C18.5698 12.2689 18.4266 11.5446 18.1472 10.869C17.8677 10.1934 17.4574 9.5797 16.9399 9.06321C16.4225 8.54672 15.808 8.13764 15.1318 7.8595C14.4556 7.58135 13.7311 7.43963 13 7.44249ZM13 16.6075C12.2865 16.6075 11.589 16.3959 10.9958 15.9995C10.4025 15.6031 9.94015 15.0397 9.66711 14.3805C9.39407 13.7213 9.32263 12.996 9.46182 12.2962C9.60102 11.5964 9.9446 10.9536 10.4491 10.4491C10.9536 9.94458 11.5964 9.601 12.2962 9.46181C12.996 9.32261 13.7214 9.39405 14.3805 9.66709C15.0397 9.94014 15.6031 10.4025 15.9995 10.9958C16.3959 11.589 16.6075 12.2865 16.6075 13C16.6075 13.4737 16.5142 13.9428 16.3329 14.3805C16.1516 14.8182 15.8859 15.2159 15.5509 15.5509C15.2159 15.8859 14.8182 16.1516 14.3805 16.3329C13.9429 16.5142 13.4737 16.6075 13 16.6075Z" fill="white"/>
</svg>
