<svg width="22" height="20" viewBox="0 0 22 20" fill="none" xmlns="http://www.w3.org/2000/svg">
<path d="M20.625 8.25172H4.3175L9.30875 2.25672C9.54214 1.97592 9.65443 1.61391 9.6209 1.25033C9.58738 0.886741 9.4108 0.551362 9.13 0.317972C8.8492 0.0845813 8.48719 -0.0277038 8.1236 0.00581831C7.76002 0.0393404 7.42464 0.215924 7.19125 0.496722L0.31625 8.74672C0.269996 8.81234 0.228634 8.88128 0.1925 8.95297C0.1925 9.02172 0.1925 9.06297 0.0962502 9.13172C0.0339263 9.28938 0.00129404 9.4572 0 9.62672C0.00129404 9.79625 0.0339263 9.96407 0.0962502 10.1217C0.0962502 10.1905 0.0962498 10.2317 0.1925 10.3005C0.228634 10.3722 0.269996 10.4411 0.31625 10.5067L7.19125 18.7567C7.32053 18.9119 7.48242 19.0368 7.66541 19.1223C7.8484 19.2079 8.048 19.2521 8.25 19.2517C8.57127 19.2524 8.88262 19.1405 9.13 18.9355C9.26923 18.82 9.38432 18.6783 9.46868 18.5183C9.55304 18.3583 9.60501 18.1833 9.62161 18.0032C9.63822 17.8231 9.61913 17.6415 9.56544 17.4688C9.51176 17.2961 9.42453 17.1357 9.30875 16.9967L4.3175 11.0017H20.625C20.9897 11.0017 21.3394 10.8569 21.5973 10.599C21.8551 10.3411 22 9.99139 22 9.62672C22 9.26205 21.8551 8.91231 21.5973 8.65445C21.3394 8.39659 20.9897 8.25172 20.625 8.25172Z" fill="white"/>
</svg>
