<svg width="213" height="25" viewBox="0 0 213 25" fill="none" xmlns="http://www.w3.org/2000/svg">
<path d="M108.106 0.387758C107.658 0.13198 107.151 -0.00172558 106.635 1.68141e-05C106.12 0.00175921 105.614 0.138889 105.168 0.397686C104.722 0.656483 104.351 1.02787 104.094 1.4747C103.836 1.92153 103.701 2.42812 103.701 2.9438V21.428C103.701 21.9437 103.836 22.4503 104.094 22.8971C104.351 23.3439 104.722 23.7153 105.168 23.9741C105.614 24.2329 106.12 24.3701 106.635 24.3718C107.151 24.3735 107.658 24.2398 108.106 23.9841L124.279 14.7405C124.729 14.4828 125.103 14.1107 125.364 13.6619C125.624 13.213 125.761 12.7033 125.761 12.1844C125.761 11.6655 125.624 11.1559 125.364 10.707C125.103 10.2581 124.729 9.88605 124.279 9.62839L108.106 0.387758Z" fill="white"/>
<path d="M12.6346 4.78003C12.159 4.55537 11.6298 4.46885 11.1074 4.53031C10.585 4.59177 10.0903 4.79874 9.67985 5.12765L2.86117 10.7564L2.67399 10.957V5.84963C2.67399 5.49504 2.53313 5.15497 2.28239 4.90423C2.03166 4.6535 1.69159 4.51263 1.337 4.51263C0.982402 4.51263 0.642332 4.6535 0.391597 4.90423C0.140862 5.15497 0 5.49504 0 5.84963V19.2196C0 19.5742 0.140862 19.9142 0.391597 20.165C0.642332 20.4157 0.982402 20.5566 1.337 20.5566C1.69159 20.5566 2.03166 20.4157 2.28239 20.165C2.53313 19.9142 2.67399 19.5742 2.67399 19.2196V14.1123L2.86117 14.3128L9.67985 19.9416C10.1714 20.3402 10.7851 20.5573 11.4179 20.5566C11.8378 20.5541 12.2524 20.463 12.6346 20.2892C13.048 20.107 13.4001 19.8096 13.6491 19.4327C13.898 19.0557 14.0332 18.6151 14.0384 18.1634V6.90586C14.0332 6.45415 13.898 6.0135 13.6491 5.63654C13.4001 5.25958 13.048 4.96224 12.6346 4.78003Z" fill="white"/>
<path d="M200.365 20.7903C200.841 21.015 201.37 21.1015 201.893 21.04C202.415 20.9786 202.91 20.7716 203.32 20.4427L210.139 14.8139L210.326 14.6134V19.7207C210.326 20.0753 210.467 20.4154 210.718 20.6661C210.968 20.9168 211.308 21.0577 211.663 21.0577C212.018 21.0577 212.358 20.9168 212.608 20.6661C212.859 20.4154 213 20.0753 213 19.7207V6.35075C213 5.99616 212.859 5.65609 212.608 5.40536C212.358 5.15462 212.018 5.01376 211.663 5.01376C211.308 5.01376 210.968 5.15462 210.718 5.40536C210.467 5.65609 210.326 5.99616 210.326 6.35075V11.4581L210.139 11.2575L203.32 5.62878C202.829 5.23018 202.215 5.013 201.582 5.01376C201.162 5.01623 200.748 5.10735 200.365 5.28116C199.952 5.46336 199.6 5.7607 199.351 6.13766C199.102 6.51462 198.967 6.95527 198.962 7.40698V18.6645C198.967 19.1162 199.102 19.5568 199.351 19.9338C199.6 20.3108 199.952 20.6081 200.365 20.7903Z" fill="white"/>
<path d="M65.1952 5.28269C64.7196 5.05803 64.1904 4.9715 63.668 5.03296C63.1456 5.09442 62.6509 5.3014 62.2404 5.63031L55.4218 11.2591L55.2346 11.4596V6.35229C55.2346 5.9977 55.0937 5.65763 54.843 5.40689C54.5922 5.15616 54.2522 5.01529 53.8976 5.01529C53.543 5.01529 53.2029 5.15616 52.9522 5.40689C52.7014 5.65763 52.5606 5.9977 52.5606 6.35229V19.7222C52.5606 20.0768 52.7014 20.4169 52.9522 20.6676C53.2029 20.9184 53.543 21.0592 53.8976 21.0592C54.2522 21.0592 54.5922 20.9184 54.843 20.6676C55.0937 20.4169 55.2346 20.0768 55.2346 19.7222V14.6149L55.4218 14.8155L62.2404 20.4442C62.7319 20.8428 63.3457 21.06 63.9785 21.0592C64.3984 21.0568 64.813 20.9656 65.1952 20.7918C65.6086 20.6096 65.9607 20.3123 66.2097 19.9353C66.4586 19.5584 66.5938 19.1177 66.599 18.666V7.40852C66.5938 6.95681 66.4586 6.51616 66.2097 6.1392C65.9607 5.76224 65.6086 5.4649 65.1952 5.28269Z" fill="white"/>
<path d="M55.1677 5.28269C54.6921 5.05803 54.1629 4.9715 53.6405 5.03296C53.1181 5.09442 52.6235 5.3014 52.213 5.63031L45.3943 11.2591L45.2071 11.4596V6.35229C45.2071 5.9977 45.0662 5.65763 44.8155 5.40689C44.5648 5.15616 44.2247 5.01529 43.8701 5.01529C43.5155 5.01529 43.1754 5.15616 42.9247 5.40689C42.674 5.65763 42.5331 5.9977 42.5331 6.35229V19.7222C42.5331 20.0768 42.674 20.4169 42.9247 20.6676C43.1754 20.9184 43.5155 21.0592 43.8701 21.0592C44.2247 21.0592 44.5648 20.9184 44.8155 20.6676C45.0662 20.4169 45.2071 20.0768 45.2071 19.7222V14.6149L45.3943 14.8155L52.213 20.4442C52.7045 20.8428 53.3182 21.06 53.9511 21.0592C54.3709 21.0568 54.7855 20.9656 55.1677 20.7918C55.5811 20.6096 55.9333 20.3123 56.1822 19.9353C56.4311 19.5584 56.5663 19.1177 56.5716 18.666V7.40852C56.5663 6.95681 56.4311 6.51616 56.1822 6.1392C55.9333 5.76224 55.5811 5.4649 55.1677 5.28269Z" fill="white"/>
<path d="M156.245 20.7903C156.72 21.015 157.249 21.1015 157.772 21.04C158.294 20.9786 158.789 20.7716 159.199 20.4427L166.018 14.8139L166.205 14.6134V19.7207C166.205 20.0753 166.346 20.4154 166.597 20.6661C166.848 20.9168 167.188 21.0577 167.542 21.0577C167.897 21.0577 168.237 20.9168 168.488 20.6661C168.738 20.4154 168.879 20.0753 168.879 19.7207V6.35075C168.879 5.99616 168.738 5.65609 168.488 5.40536C168.237 5.15462 167.897 5.01376 167.542 5.01376C167.188 5.01376 166.848 5.15462 166.597 5.40536C166.346 5.65609 166.205 5.99616 166.205 6.35075V11.4581L166.018 11.2575L159.199 5.62878C158.708 5.23018 158.094 5.013 157.461 5.01376C157.041 5.01623 156.627 5.10735 156.245 5.28116C155.831 5.46336 155.479 5.7607 155.23 6.13766C154.981 6.51462 154.846 6.95527 154.841 7.40698V18.6645C154.846 19.1162 154.981 19.5568 155.23 19.9338C155.479 20.3108 155.831 20.6081 156.245 20.7903Z" fill="white"/>
<path d="M166.272 20.7903C166.748 21.015 167.277 21.1015 167.799 21.04C168.322 20.9786 168.816 20.7716 169.227 20.4427L176.045 14.8139L176.233 14.6134V19.7207C176.233 20.0753 176.373 20.4154 176.624 20.6661C176.875 20.9168 177.215 21.0577 177.57 21.0577C177.924 21.0577 178.264 20.9168 178.515 20.6661C178.766 20.4154 178.907 20.0753 178.907 19.7207V6.35075C178.907 5.99616 178.766 5.65609 178.515 5.40536C178.264 5.15462 177.924 5.01376 177.57 5.01376C177.215 5.01376 176.875 5.15462 176.624 5.40536C176.373 5.65609 176.233 5.99616 176.233 6.35075V11.4581L176.045 11.2575L169.227 5.62878C168.735 5.23018 168.121 5.013 167.489 5.01376C167.069 5.01623 166.654 5.10735 166.272 5.28116C165.859 5.46336 165.506 5.7607 165.258 6.13766C165.009 6.51462 164.873 6.95527 164.868 7.40698V18.6645C164.873 19.1162 165.009 19.5568 165.258 19.9338C165.506 20.3108 165.859 20.6081 166.272 20.7903Z" fill="white"/>
</svg>
